<svg xmlns="http://www.w3.org/2000/svg" width="64" height="44" viewBox="0 0 64 44"><g><g><path fill="#180f10" d="M29 34h-2c0-2.206 1.794-4 4-4h11a2 2 0 0 0 1.703-.952l-.001-.003.003-.001A2.002 2.002 0 0 0 42 26h-9.176l-11-4H14v14h4.171l17 6h1.584l24.63-12.808C61.66 28.878 62 28.35 62 28a2.002 2.002 0 0 0-1.862-1.994L44.88 30.772A3.989 3.989 0 0 1 42 32H31c-1.103 0-2 .897-2 2zm-6.824-14l11 4H42a4.004 4.004 0 0 1 3.986 4.338L60 24c2.206 0 4 1.794 4 4 0 1.37-1.16 2.573-1.292 2.706l-.247.18L37.245 44h-2.416l-17-6H14c0 1.104-.897 2-2 2H0v-2h12V20H0v-2h12c1.103 0 2 .898 2 2zM10 36H8v-2h2zm-4 0H4v-2h2zm11-26a1 1 0 0 1-.894-.553l-4-8A1 1 0 0 1 13-.001h5v2h-3.382L17 6.764l3.105-6.21A1 1 0 0 1 21-.001h16c.063 0 .126.007.189.019l26 5a1 1 0 0 1 .81.982v3a1 1 0 0 1-.796.979l-29 6a.996.996 0 0 1-.203.02H24a1 1 0 0 1-.949-.683L21.28 10zm1.618-2H62V6.826L36.905 2H21.618zm6.103 6h9.176l19.333-4H23.387zM10 2H0V0h10zm1 4H4V4h7zm1 4H8V8h4zm-6 0H0V8h6z"/></g></g></svg>