<svg xmlns="http://www.w3.org/2000/svg" width="64" height="52" viewBox="0 0 64 52"><g><g><path fill="#180f10" d="M53 27a5.218 5.218 0 0 1-2.916-.885l-4.57 2.742-1.029-1.715 4.1-2.46C47.592 23.355 47 21.548 47 19.5c0-3.026.682-6.5 6-6.5s6 3.474 6 6.5c0 2.04-.587 3.84-1.572 5.165L64 28.42V31c0 2.167-1.374 4-3 4h-6v-2h6c.297 0 1-.777 1-2v-1.42l-6.074-3.471a5.219 5.219 0 0 1-2.926.89zm0-12c-3.028 0-4 1.093-4 4.5 0 2.666 1.402 5.5 4 5.5s4-2.834 4-5.5c0-3.407-.972-4.5-4-4.5zM11 27c-1.077 0-2.07-.32-2.926-.891L2 29.579V31c0 1.224.703 2 1 2h6v2H3c-1.626 0-3-1.832-3-4v-2.58l6.572-3.755C5.587 23.34 5 21.54 5 19.5c0-3.026.682-6.5 6-6.5s6 3.474 6 6.5c0 2.049-.592 3.856-1.585 5.183l4.1 2.46-1.03 1.715-4.569-2.742A5.218 5.218 0 0 1 11 27zm0-12c-3.028 0-4 1.093-4 4.5 0 2.666 1.402 5.5 4 5.5s4-2.834 4-5.5c0-3.407-.972-4.5-4-4.5zm0 37H9v-9c0-8.01 4.446-9.7 9.152-11.49 1.677-.636 3.409-1.294 5.148-2.264l2.226-3.34.474.08v-2.52c-.954-.886-3.159-3.505-3.99-9.325L22 14v-4c0-6.636 3.364-10 10-10s10 3.364 10 10l-.01 4.141c-.831 5.82-3.037 8.439-3.99 9.324v2.52l.474-.079 2.226 3.34c1.739.97 3.47 1.628 5.148 2.265C50.554 33.299 55 34.99 55 43v9h-2v-9c0-6.631-3.128-7.82-7.863-9.62-1.53-.581-3.241-1.231-4.961-2.143l-3.979 3.98-4.197-2.1-4.197 2.1-3.98-3.98c-1.72.912-3.43 1.562-4.96 2.143C14.128 35.18 11 36.37 11 43zm13-38.071c.861 5.916 3.2 7.96 3.519 8.211 1.762.845 4.455.86 4.482.86.025 0 2.717-.015 4.478-.859.313-.25 2.66-2.305 3.52-8.212v-2.311l-2.954 1.477-10-4L24 10.618zm8-11.93c-4.945 0-7.441 1.972-7.916 6.34l2.87-1.435 10 4 3.035-1.517C39.81 4.285 37.324 2 32 2zm-4 24.32l4 .667 4-.667v-1.875c-1.908.548-3.895.556-4 .556-.105 0-2.092-.008-4-.556zm4 4.562l3.803 1.901 2.91-2.91-1.187-1.78-5.526.921-5.526-.92-1.187 1.78 2.91 2.91zM33 42h-2v-2h2zm0-4h-2v-2h2zM19 52h-2v-8h2zm28 0h-2v-8h2z"/></g></g></svg>