<svg xmlns="http://www.w3.org/2000/svg" width="64" height="64" viewBox="0 0 64 64"><g><g><path fill="#180f10" d="M35 20h-6c-.727 0-1.365-.39-1.715-.972-4.394.347-7.91 3.863-8.257 8.257A2 2 0 0 1 20 29v6c0 .726-.39 1.364-.972 1.714.347 4.394 3.863 7.91 8.257 8.258.35-.582.988-.973 1.715-.973h6c.727 0 1.365.39 1.715.973 4.394-.347 7.91-3.864 8.257-8.258A2.001 2.001 0 0 1 44 35v-6a2 2 0 0 1 .972-1.714c-.347-4.394-3.863-7.91-8.257-8.257-.35.582-.988.972-1.715.972zm27 7c1.102 0 2 .897 2 2v6c0 1.102-.898 2-2 2h-.019C61.466 50.542 50.544 61.465 37 61.98V62c0 1.102-.898 2-2 2h-6c-1.103 0-2-.898-2-2v-.02C13.456 61.466 2.534 50.544 2.019 37H2c-1.103 0-2-.898-2-2v-6c0-1.103.897-2 2-2h.019C2.533 13.456 13.456 2.533 27 2.018V2c0-1.102.897-2 2-2h6c1.102 0 2 .898 2 2v.02c13.544.514 24.467 11.437 24.981 24.98zm-44.955 0c.477-5.27 4.686-9.479 9.955-9.956V4.02C14.56 4.533 4.533 14.56 4.02 27zM27 46.955c-5.27-.478-9.478-4.686-9.955-9.956H4.021C4.533 49.44 14.56 59.466 27 59.98zm10-29.91c5.27.476 9.478 4.685 9.955 9.955h13.024C59.467 14.56 49.44 4.533 37 4.02zm9.955 19.954c-.477 5.27-4.686 9.478-9.955 9.956v13.024c12.44-.513 22.467-10.54 22.98-22.98zM29 2v16h6.002L35 2zm0 44v16h6.002L35 46zm17-17v6h16.002L62 29zM2 29v6h16.002L18 29zm31-13h-2v-2h2zm17 17h-2v-2h2zM33 50h-2v-2h2zm0 10h-2v-2h2zM16 33h-2v-2h2z"/></g></g></svg>