<svg xmlns="http://www.w3.org/2000/svg" width="64" height="56" viewBox="0 0 64 56"><g><g><path d="M19 56H0v-2h4V24H0v-2h23.586l10.592-10.593 3.83-7.66A4.005 4.005 0 0 1 42 0c2.757 0 5 2.243 5 5 0 2.312-.991 6.095-1.033 6.255a1.043 1.043 0 0 1-.057.159l-4.713 10.369.217.217H57c2.757 0 5 2.243 5 5 0 1.27-.476 2.43-1.258 3.312A5.01 5.01 0 0 1 64 35a5.01 5.01 0 0 1-3.258 4.687A4.977 4.977 0 0 1 62 43a5.01 5.01 0 0 1-3.258 4.687A4.977 4.977 0 0 1 60 51c0 2.757-2.243 5-5 5H29a.999.999 0 0 1-.447-.106L24.763 54H22v-2h3c.155 0 .308.036.447.105L29.237 54h15.765A4.974 4.974 0 0 1 44 51c0-1.27.476-2.43 1.258-3.313A5.01 5.01 0 0 1 42 43c0-1.43.603-2.72 1.568-3.633A5.004 5.004 0 0 1 41 35a5.009 5.009 0 0 1 3.258-4.687A4.98 4.98 0 0 1 43 27c0-1.125.373-2.164 1.002-3H41a.999.999 0 0 1-.707-.293l-1-1a.999.999 0 0 1-.203-1.121l4.964-10.921C44.194 10.117 45 6.883 45 5c0-1.655-1.346-3-3-3-1.103 0-2 .897-2 2a.999.999 0 0 1-.106.447l-4 8a.998.998 0 0 1-.187.26l-11 11A.998.998 0 0 1 24 24h-4v31a1 1 0 0 1-1 1zm36-2c1.654 0 3-1.346 3-3 0-1.655-1.346-3-3-3h-6c-1.654 0-3 1.345-3 3 0 1.654 1.346 3 3 3zm2-8c1.654 0 3-1.346 3-3 0-1.655-1.346-3-3-3H47c-1.654 0-3 1.345-3 3 0 1.654 1.346 3 3 3zm0-8h2c1.654 0 3-1.346 3-3 0-1.655-1.346-3-3-3H46c-1.654 0-3 1.345-3 3 0 1.654 1.346 3 3 3v.1c.323-.066.658-.1 1-.1h10zm0-8c1.654 0 3-1.346 3-3 0-1.655-1.346-3-3-3h-9c-1.654 0-3 1.345-3 3 0 1.654 1.346 3 3 3zM18 54V24H6v30zm-2-2h-2v-2h2zm-4 0h-2v-2h2z"/></g></g></svg>