<svg xmlns="http://www.w3.org/2000/svg" width="64" height="64" viewBox="0 0 64 64"><g><g><path d="M64 18h-3.643l-4.993 4h-5.775l-2.828 7.49-6.101 9.135-13.273 13.293 1.373 1.375a1 1 0 0 1 0 1.414l-6.99 7a.995.995 0 0 1-1.412 0l-.292-.293-2.29 2.293a.994.994 0 0 1-1.412 0 1 1 0 0 1 0-1.414L18.654 60 8.084 49.414 1.8 55.707a.994.994 0 0 1-1.412 0 1 1 0 0 1 0-1.414L6.67 48l-.292-.293a1 1 0 0 1 0-1.414l6.99-7a.997.997 0 0 1 1.411 0l.637.637.76-4.378 2.89-5.788v-4.641L18.287 22h-5.561l-4.993-4H4.089v-2H64.001zM39.35 37.436l5.886-8.842L47.706 22h-3.097l-3.8 6.662-5.312 4.255-4.177 1.045a.993.993 0 0 1-.055.014l-.332.083-.3-.15a.994.994 0 0 1-.06-.03l-4.42-2.212-1.081-6.503L24.279 22h-3.942l.727 3v5.236l-3.034 6.076-.89 5.345 8.999 9.01zM13.426 20h25.55a.981.981 0 0 1 .119 0H54.664l2.496-2H10.93zm13.6 4.758l.93 5.575 2.896 1.45 4.348-4.355L37.523 22H26.337zm7.564 6.325l4.674-3.745L42.309 22h-2.613l-2.812 6.571-2.58 2.583zm-25.8 16.21a.917.917 0 0 1 .008.008l12.266 12.285L26.642 54 14.074 41.414 8.497 47l.283.284a.923.923 0 0 1 .01.009zM22.062 55a.994.994 0 0 1-.706-.293l-1.997-2a1 1 0 0 1 1.411-1.414l1.998 2A1 1 0 0 1 22.063 55zm-6.697-43.293l-2.996-3 1.412-1.414 2.995 3zm8.799-5.26l-1.997-4 1.786-.895 1.997 4zm28.56 5.26l-1.413-1.414 2.996-3 1.412 1.414zm-8.8-5.26l-1.787-.895 1.997-4 1.787.895zM35.043 4h-1.997V0h1.997z"/></g></g></svg>