<svg xmlns="http://www.w3.org/2000/svg" width="42" height="42" viewBox="0 0 42 42"><g><g><path d="M24 25v10c0 3.925-5.271 7-12 7-6.73 0-12-3.075-12-7V25c0-3.925 5.27-7 12-7 6.729 0 12 3.075 12 7zm-2 8.917C19.868 35.788 16.222 37 12 37s-7.868-1.212-10-3.083V35c0 2.71 4.58 5 10 5s10-2.29 10-5zm0-5C19.868 30.79 16.222 32 12 32s-7.868-1.211-10-3.083V30c0 2.71 4.58 5 10 5s10-2.29 10-5zM22 25c0-2.71-4.58-5-10-5S2 22.29 2 25s4.58 5 10 5 10-2.29 10-5zM42 7v20c0 3.925-5.272 7-12 7-1.607 0-3.164-.177-4.629-.526a1 1 0 0 1 .463-1.945c1.313.312 2.715.47 4.166.47 5.42 0 10-2.29 10-5v-1.082C37.868 27.79 34.22 29 30 29c-1.61 0-3.168-.177-4.632-.527a.999.999 0 1 1 .463-1.945c1.313.313 2.716.472 4.169.472 5.42 0 10-2.29 10-5v-1.083C37.868 22.79 34.22 24 30 24c-1.61 0-3.168-.177-4.632-.527a.999.999 0 1 1 .463-1.945c1.313.313 2.716.472 4.169.472 5.42 0 10-2.29 10-5v-1.083C37.868 17.79 34.22 19 30 19s-7.868-1.211-10-3.083V17a1 1 0 1 1-2 0V7c0-3.925 5.271-7 12-7 6.728 0 12 3.075 12 7zm-2 3.917C37.868 12.79 34.22 14 30 14s-7.868-1.211-10-3.083V12c0 2.71 4.579 5 10 5 5.42 0 10-2.29 10-5zM40 7c0-2.71-4.58-5-10-5-5.421 0-10 2.29-10 5s4.579 5 10 5c5.42 0 10-2.29 10-5z"/></g></g></svg>