<svg xmlns="http://www.w3.org/2000/svg" width="52" height="64" viewBox="0 0 52 64"><g><g><path d="M45 13.978h-1v32.96h-2V11.981h3c2.757 0 5-2.241 5-4.995a5.003 5.003 0 0 0-5-4.993c-2.757 0-5 2.24-5 4.993v49.94a.999.999 0 0 1-1 .999H27v-1.998h11V6.987c0-1.955.807-3.725 2.105-4.994H7c-2.757 0-5 2.24-5 4.993v48.941h11v1.998H1c-.553 0-1-.447-1-1V6.987C0 3.132 3.14-.005 7-.005h38c3.86 0 7 3.137 7 6.991 0 3.855-3.14 6.992-7 6.992zm-24 0h-2V11.98h2zm4 0h-2V11.98h2zm-8 0h-2V11.98h2zm14 5.993H8v-1.998h23zm0 3.995H8v-1.998h23zm0 3.995H8v-1.998h23zm0 3.995H8V29.96h23zm0 3.995H8v-1.997h23zm-7 27.966a1 1 0 0 1-.707-.292L20 60.335l-3.293 3.29a.997.997 0 0 1-1.09.216.997.997 0 0 1-.617-.923V51.932h.106A6.967 6.967 0 0 1 13 46.938c0-3.855 3.14-6.991 7-6.991s7 3.136 7 6.991a6.967 6.967 0 0 1-2.106 4.994H25v10.986a.997.997 0 0 1-1 1zm-7-3.41l2.293-2.29a1 1 0 0 1 1.414 0L23 60.507v-7.253a6.965 6.965 0 0 1-3 .675 6.964 6.964 0 0 1-3-.675zm3-18.563c-2.757 0-5 2.24-5 4.994a5.003 5.003 0 0 0 5 4.994c2.757 0 5-2.24 5-4.994a5.003 5.003 0 0 0-5-4.994zm-10 5.993H8v-1.998h2zm21 0h-2v-1.998h2z"/></g></g></svg>