<svg xmlns="http://www.w3.org/2000/svg" width="42" height="56" viewBox="0 0 42 56"><g><g><path fill="#4274bb" d="M41.46 26.52l.016.003c-2.563 11.582-9.075 21.593-17.983 28.471-.225.173-.452.345-.68.517a3.533 3.533 0 0 1-3.96-.253C9.687 48.313 3.014 38.088.462 26.263l.015-.006a22.395 22.395 0 0 1-.479-4.622C0 9.688 9.401-.001 20.998-.001 32.598-.001 42 9.688 42 21.635c0 1.678-.185 3.314-.54 4.885zm-30.083-4.885c0 5.473 4.31 9.91 9.62 9.91 5.317 0 9.624-4.437 9.624-9.91 0-5.475-4.307-9.913-9.623-9.913-5.312 0-9.62 4.438-9.62 9.913z"/></g></g></svg>