<svg xmlns="http://www.w3.org/2000/svg" width="23" height="14" viewBox="0 0 23 14">
    <g>
        <g>
            <path fill="#fff" d="M14.289 12.303l5.024-4.304H.998A1 1 0 0 1 0 7a1 1 0 0 1 .998-.998h18.315l-5.024-4.31a.992.992 0 0 1 0-1.407.986.986 0 0 1 1.401 0l6.958 5.96c.006.007.019.013.025.019.013.007.026.007.039.014.013.012.006.024.013.038a.998.998 0 0 1 .275.678.997.997 0 0 1-.275.677c-.007.013-.007.026-.013.039-.013.013-.026.013-.039.019-.006.007-.019.013-.032.018l-6.95 5.961a.983.983 0 0 1-1.402 0 .991.991 0 0 1 0-1.406z" />
        </g>
    </g>
</svg>