<svg 
 xmlns="http://www.w3.org/2000/svg"
 xmlns:xlink="http://www.w3.org/1999/xlink"
 width="304px" height="42px">
<path fill-rule="evenodd"  fill="rgb(0, 0, 0)"
 d="M303.917,28.477 C303.891,28.498 303.741,28.598 303.435,28.598 C303.130,28.598 302.980,28.498 302.953,28.477 L302.891,28.432 L302.885,28.352 L302.743,26.246 C301.710,27.958 299.839,28.891 297.412,28.891 C294.503,28.891 292.625,27.082 292.625,24.282 C292.625,22.152 293.606,19.614 298.276,19.614 C300.386,19.614 302.128,19.811 302.707,19.884 L302.707,17.783 C302.707,14.912 301.515,13.687 298.724,13.687 C296.397,13.687 294.388,14.462 294.367,14.470 L294.286,14.502 L294.216,14.450 C293.938,14.245 293.783,13.872 293.819,13.501 L293.829,13.395 L293.926,13.359 C293.949,13.351 296.280,12.497 298.844,12.497 C303.167,12.497 303.986,14.757 303.986,18.930 L303.986,28.427 L303.917,28.477 ZM302.707,21.082 L302.466,21.058 C301.607,20.969 300.006,20.805 298.456,20.805 C295.392,20.805 293.965,21.909 293.965,24.282 C293.965,26.468 295.231,27.672 297.530,27.672 C300.626,27.672 302.707,25.517 302.707,22.311 L302.707,21.082 ZM288.017,28.598 C287.627,28.598 287.471,28.498 287.445,28.477 L287.376,28.427 L287.376,21.069 L278.338,21.069 L278.338,28.427 L278.269,28.477 C278.242,28.498 278.087,28.598 277.697,28.598 C277.316,28.598 277.164,28.504 277.126,28.477 L277.058,28.426 L277.058,12.961 L277.126,12.911 C277.164,12.883 277.316,12.792 277.697,12.792 C278.092,12.792 278.237,12.874 278.288,12.926 L278.338,12.976 L278.338,19.849 L287.376,19.849 L287.376,12.961 L287.445,12.911 C287.471,12.891 287.627,12.792 288.017,12.792 C288.411,12.792 288.556,12.874 288.607,12.926 L288.657,12.976 L288.657,28.427 L288.588,28.477 C288.561,28.498 288.406,28.598 288.017,28.598 ZM271.314,28.598 C270.961,28.598 270.760,28.503 270.738,28.492 L270.646,28.447 L270.646,16.547 C270.646,15.780 270.663,15.147 270.680,14.729 C270.431,15.137 270.030,15.775 269.569,16.441 L261.253,28.474 L261.215,28.492 C261.194,28.503 260.990,28.598 260.549,28.598 C260.139,28.598 259.961,28.505 259.931,28.487 L259.848,28.438 L259.848,12.961 L259.917,12.911 C259.944,12.891 260.099,12.792 260.489,12.792 C260.878,12.792 261.033,12.891 261.060,12.911 L261.129,12.961 L261.129,25.017 C261.129,25.702 261.107,26.242 261.086,26.614 C261.297,26.268 261.621,25.754 262.057,25.124 L270.564,12.911 C270.602,12.882 270.761,12.792 271.225,12.792 C271.673,12.792 271.842,12.864 271.904,12.925 L271.955,12.975 L271.955,28.437 L271.874,28.487 C271.855,28.498 271.677,28.598 271.314,28.598 ZM255.508,32.361 C255.147,32.361 254.993,32.262 254.967,32.242 L254.898,32.192 L254.898,28.598 L242.880,28.598 L242.880,12.961 L242.947,12.911 C242.985,12.883 243.138,12.792 243.520,12.792 C243.909,12.792 244.064,12.891 244.091,12.911 L244.159,12.961 L244.159,27.377 L252.960,27.377 L252.960,12.961 L253.029,12.911 C253.055,12.891 253.210,12.792 253.600,12.792 C253.989,12.792 254.144,12.891 254.171,12.911 L254.239,12.961 L254.239,27.377 L256.119,27.377 L256.119,32.192 L256.050,32.242 C256.023,32.262 255.869,32.361 255.508,32.361 ZM237.136,28.598 C236.781,28.598 236.582,28.503 236.560,28.492 L236.467,28.446 L236.467,16.547 C236.467,15.780 236.485,15.148 236.500,14.730 C236.251,15.138 235.850,15.776 235.390,16.441 L227.075,28.474 L227.037,28.492 C227.015,28.503 226.812,28.598 226.371,28.598 C225.961,28.598 225.783,28.505 225.753,28.487 L225.670,28.438 L225.670,12.961 L225.739,12.911 C225.765,12.891 225.920,12.792 226.311,12.792 C226.700,12.792 226.855,12.891 226.882,12.911 L226.950,12.961 L226.950,25.017 C226.950,25.702 226.929,26.242 226.907,26.614 C227.118,26.268 227.443,25.754 227.879,25.124 L236.386,12.911 C236.424,12.882 236.583,12.792 237.047,12.792 C237.495,12.792 237.664,12.864 237.726,12.925 L237.777,12.975 L237.777,28.437 L237.696,28.487 C237.676,28.498 237.498,28.598 237.136,28.598 ZM221.299,32.361 C220.940,32.361 220.786,32.262 220.759,32.242 L220.690,32.192 L220.690,28.598 L208.252,28.598 L208.252,32.192 L208.182,32.243 C208.155,32.263 208.001,32.361 207.641,32.361 C207.280,32.361 207.126,32.262 207.099,32.242 L207.031,32.192 L207.031,27.377 L208.480,27.377 C209.114,26.438 209.745,24.839 210.132,19.945 L210.712,12.792 L220.032,12.792 L220.032,27.377 L221.910,27.377 L221.910,32.203 L221.827,32.252 C221.808,32.263 221.631,32.361 221.299,32.361 ZM218.751,14.010 L211.846,14.010 L211.382,20.089 C211.055,24.419 210.515,26.208 209.963,27.377 L218.751,27.377 L218.751,14.010 ZM204.452,21.187 L194.391,21.187 C194.594,25.668 196.137,27.583 199.528,27.583 C201.910,27.583 203.259,26.457 203.273,26.445 L203.356,26.374 L203.452,26.427 C203.772,26.601 204.009,26.973 204.045,27.353 L204.054,27.443 L203.988,27.499 C203.920,27.557 202.326,28.891 199.231,28.891 C195.240,28.891 193.043,25.949 193.043,20.605 C193.043,15.376 195.272,12.497 199.320,12.497 C202.712,12.497 204.821,14.635 204.821,18.076 C204.821,19.874 204.499,21.018 204.486,21.066 L204.452,21.187 ZM199.320,13.715 C196.242,13.715 194.540,15.877 194.388,19.967 L203.330,19.967 C203.379,19.684 203.482,18.963 203.482,17.929 C203.482,15.291 201.925,13.715 199.320,13.715 ZM187.808,28.598 C187.419,28.598 187.239,28.499 187.220,28.487 L187.138,28.438 L187.138,11.401 C187.138,10.380 187.176,9.606 187.214,9.089 C187.035,9.437 186.774,9.904 186.423,10.463 L179.302,22.472 L179.259,22.494 C179.237,22.504 179.036,22.598 178.712,22.598 C178.416,22.598 178.183,22.501 178.174,22.497 L178.123,22.475 L178.095,22.426 L171.295,10.457 C170.992,9.951 170.754,9.499 170.581,9.148 C170.627,9.714 170.673,10.564 170.673,11.695 L170.673,28.427 L170.604,28.477 C170.577,28.498 170.422,28.598 170.033,28.598 C169.643,28.598 169.464,28.498 169.444,28.487 L169.363,28.437 L169.363,7.223 L169.471,7.184 C169.481,7.179 169.741,7.085 170.182,7.085 C170.619,7.085 170.904,7.178 170.917,7.181 L170.975,7.201 L171.007,7.256 L177.987,19.549 C178.360,20.174 178.592,20.626 178.717,20.882 C178.852,20.628 179.105,20.174 179.500,19.544 L186.830,7.211 L186.873,7.190 C186.895,7.179 187.101,7.085 187.629,7.085 C188.124,7.085 188.352,7.175 188.376,7.186 L188.478,7.229 L188.478,28.438 L188.395,28.487 C188.376,28.499 188.197,28.598 187.808,28.598 ZM154.378,28.565 C153.997,28.565 153.844,28.473 153.806,28.445 L153.739,28.394 L153.739,21.977 L149.040,21.977 C148.767,21.977 148.580,21.967 148.472,21.957 L144.916,28.446 L144.859,28.466 C144.848,28.471 144.588,28.565 144.148,28.565 C143.759,28.565 143.580,28.466 143.561,28.454 L143.420,28.370 L147.123,21.739 C145.175,21.154 144.105,19.622 144.105,17.398 C144.105,14.492 145.950,12.758 149.040,12.758 L155.018,12.758 L155.018,28.394 L154.951,28.445 C154.913,28.473 154.760,28.565 154.378,28.565 ZM153.739,13.978 L149.158,13.978 C146.694,13.978 145.445,15.128 145.445,17.398 C145.445,19.564 146.764,20.757 149.158,20.757 L153.739,20.757 L153.739,13.978 ZM139.167,28.565 C138.862,28.565 138.712,28.466 138.686,28.445 L138.623,28.399 L138.617,28.320 L138.476,26.216 C137.443,27.925 135.572,28.859 133.144,28.859 C130.236,28.859 128.357,27.049 128.357,24.249 C128.357,22.119 129.338,19.582 134.008,19.582 C136.118,19.582 137.860,19.778 138.439,19.852 L138.439,17.751 C138.439,14.879 137.247,13.655 134.456,13.655 C132.130,13.655 130.119,14.431 130.098,14.438 L130.017,14.470 L129.946,14.417 C129.670,14.212 129.515,13.840 129.551,13.469 L129.562,13.363 L129.658,13.327 C129.681,13.318 132.011,12.465 134.576,12.465 C138.899,12.465 139.718,14.725 139.718,18.897 L139.718,28.394 L139.651,28.445 C139.624,28.465 139.474,28.565 139.167,28.565 ZM138.439,21.050 L138.210,21.027 C137.349,20.938 135.745,20.771 134.188,20.771 C131.124,20.771 129.698,21.876 129.698,24.249 C129.698,26.435 130.964,27.639 133.263,27.639 C136.358,27.639 138.439,25.485 138.439,22.279 L138.439,21.050 ZM123.749,28.565 C123.359,28.565 123.204,28.466 123.177,28.445 L123.108,28.395 L123.108,21.036 L114.070,21.036 L114.070,28.395 L114.001,28.445 C113.974,28.466 113.819,28.565 113.430,28.565 C113.049,28.565 112.896,28.473 112.858,28.445 L112.790,28.394 L112.790,12.929 L112.858,12.878 C112.896,12.851 113.049,12.758 113.430,12.758 C113.837,12.758 113.977,12.853 114.019,12.893 L114.070,12.943 L114.070,19.817 L123.108,19.817 L123.108,12.928 L123.177,12.878 C123.204,12.859 123.359,12.758 123.749,12.758 C124.143,12.758 124.287,12.843 124.339,12.894 L124.389,12.943 L124.389,28.395 L124.320,28.445 C124.293,28.466 124.138,28.565 123.749,28.565 ZM109.319,13.978 L104.496,13.978 L104.496,28.394 L104.428,28.445 C104.390,28.473 104.238,28.565 103.856,28.565 C103.467,28.565 103.312,28.466 103.285,28.445 L103.216,28.395 L103.216,13.978 L98.393,13.978 L98.346,13.932 C98.317,13.903 98.176,13.744 98.176,13.369 C98.176,12.991 98.318,12.832 98.346,12.805 L98.393,12.758 L109.319,12.758 L109.366,12.805 C109.394,12.832 109.536,12.991 109.536,13.369 C109.536,13.744 109.395,13.903 109.366,13.932 L109.319,13.978 ZM92.752,28.859 C88.665,28.859 86.415,25.948 86.415,20.662 C86.415,15.375 88.665,12.465 92.752,12.465 C95.034,12.465 96.239,13.133 96.289,13.161 L96.374,13.209 L96.374,13.309 C96.374,13.731 96.231,14.054 95.949,14.269 L95.868,14.330 L95.779,14.283 C95.767,14.277 94.684,13.713 92.961,13.713 C89.458,13.713 87.755,15.986 87.755,20.662 C87.755,25.362 89.446,27.551 93.079,27.551 C94.919,27.551 96.061,26.902 96.071,26.896 L96.154,26.848 L96.235,26.898 C96.504,27.064 96.693,27.417 96.731,27.821 L96.741,27.930 L96.651,27.984 C96.591,28.020 95.153,28.859 92.752,28.859 ZM81.658,28.565 C81.351,28.565 81.201,28.465 81.174,28.445 L81.113,28.399 L81.107,28.320 L80.965,26.215 C79.932,27.925 78.061,28.859 75.632,28.859 C72.725,28.859 70.846,27.049 70.846,24.249 C70.846,22.119 71.827,19.582 76.497,19.582 C78.607,19.582 80.349,19.778 80.928,19.852 L80.928,17.751 C80.928,14.879 79.736,13.655 76.944,13.655 C74.619,13.655 72.608,14.431 72.587,14.438 L72.506,14.470 L72.435,14.417 C72.158,14.212 72.003,13.839 72.040,13.468 L72.051,13.363 L72.148,13.327 C72.171,13.318 74.500,12.465 77.064,12.465 C81.388,12.465 82.208,14.725 82.208,18.897 L82.208,28.395 L82.140,28.445 C82.113,28.466 81.963,28.565 81.658,28.565 ZM80.928,21.050 L80.700,21.027 C79.838,20.938 78.234,20.771 76.676,20.771 C73.613,20.771 72.186,21.876 72.186,24.249 C72.186,26.435 73.452,27.639 75.751,27.639 C78.847,27.639 80.928,25.485 80.928,22.279 L80.928,21.050 ZM65.909,28.565 C65.555,28.565 65.354,28.471 65.332,28.461 L65.239,28.415 L65.239,18.437 C64.520,18.708 62.157,19.507 59.229,19.507 C54.661,19.507 52.624,17.387 52.624,12.633 L52.624,7.202 L52.717,7.158 C52.739,7.148 52.939,7.053 53.294,7.053 C53.649,7.053 53.849,7.148 53.871,7.158 L53.964,7.202 L53.964,12.604 C53.964,16.757 55.411,18.229 59.497,18.229 C62.505,18.229 64.763,17.295 65.239,17.082 L65.239,7.202 L65.332,7.158 C65.354,7.148 65.555,7.053 65.909,7.053 C66.264,7.053 66.465,7.148 66.487,7.158 L66.579,7.202 L66.579,28.415 L66.487,28.461 C66.465,28.471 66.264,28.565 65.909,28.565 Z"/>
<path fill-rule="evenodd"  fill="rgb(66, 116, 187)"
 d="M38.413,27.672 C38.413,27.672 35.100,27.620 32.104,25.439 C29.050,23.218 25.006,22.228 22.002,25.083 C20.423,26.582 18.269,28.547 15.675,28.325 C12.081,28.013 11.201,25.901 10.071,24.566 C8.940,23.231 7.851,22.304 6.490,22.667 C4.824,23.116 4.107,25.721 3.137,26.989 C2.671,27.600 1.463,27.704 0.969,26.618 C0.327,25.198 0.034,23.045 -0.011,21.002 C0.034,18.961 0.327,16.806 0.969,15.388 C1.463,14.299 2.671,14.406 3.137,15.016 C4.107,16.282 4.824,18.890 6.490,19.336 C7.851,19.700 8.940,18.774 10.071,17.440 C11.201,16.105 12.081,13.990 15.675,13.680 C18.269,13.456 20.423,15.422 22.002,16.918 C25.006,19.775 29.050,18.784 32.104,16.562 C35.100,14.381 38.413,14.335 38.413,14.335 C39.224,16.661 39.424,18.817 39.467,21.002 C39.424,23.187 39.224,25.342 38.413,27.672 ZM21.607,10.315 C19.316,8.032 17.373,6.260 13.991,8.951 C12.419,10.206 11.305,11.998 9.683,12.837 C7.363,13.941 5.327,12.600 4.681,10.104 C4.294,8.222 5.115,7.048 5.920,6.266 C6.146,6.036 6.406,5.821 6.650,5.598 C8.855,3.585 11.708,1.841 14.943,1.024 C15.146,0.918 16.329,0.935 16.370,2.210 C16.378,2.390 16.378,2.514 16.415,2.697 C16.658,3.908 17.769,4.743 19.056,4.637 C22.056,4.379 24.029,2.414 27.241,2.427 C27.657,2.427 28.086,2.474 28.537,2.612 C29.590,3.145 34.017,4.996 37.210,11.123 C31.691,10.015 26.988,15.670 21.607,10.315 ZM9.683,29.209 C11.305,30.044 12.419,31.840 13.991,33.089 C17.373,35.782 19.316,34.009 21.607,31.727 C26.988,26.372 31.691,32.027 37.210,30.918 C34.017,37.048 29.590,38.898 28.537,39.429 C28.086,39.570 27.657,39.615 27.241,39.618 C24.029,39.628 22.056,37.664 19.056,37.409 C17.769,37.297 16.658,38.134 16.415,39.346 C16.378,39.529 16.378,39.656 16.370,39.836 C16.329,41.106 15.146,41.123 14.943,41.023 C11.708,40.204 8.855,38.457 6.650,36.446 C6.406,36.220 6.146,36.004 5.920,35.776 C5.115,34.999 4.294,33.817 4.681,31.937 C5.327,29.442 7.363,28.101 9.683,29.209 Z"/>
</svg>